<?xml version="1.0" standalone="no"?><!DOCTYPE svg PUBLIC "-//W3C//DTD SVG 1.1//EN" "http://www.w3.org/Graphics/SVG/1.1/DTD/svg11.dtd"><svg class="icon" width="200px" height="200.00px" viewBox="0 0 1024 1024" version="1.1" xmlns="http://www.w3.org/2000/svg"><path d="M244.565333 642.218667a82.261333 82.261333 0 0 1-35.157333-7.338667 92.842667 92.842667 0 0 1-46.08-55.808 160.256 160.256 0 0 1 7.338667-117.248c21.674667-42.837333 64.170667-88.405333 119.466666-88.405333a113.493333 113.493333 0 0 1 48.128 11.434666 97.962667 97.962667 0 0 1 54.442667 57.173334A155.136 155.136 0 0 1 375.466667 557.738667a164.010667 164.010667 0 0 1-130.901334 84.48z" fill="#C9C540" /><path d="M300.885333 460.8c62.293333 47.786667 48.128 116.394667 15.530667 166.741333a172.373333 172.373333 0 0 0 66.56-67.242666c29.525333-58.197333 39.253333-144.554667-43.008-183.125334s-145.408 21.674667-175.445333 79.189334a115.712 115.712 0 0 1 136.362666 4.437333z" fill="#B2A93D" /><path d="M288.597333 366.08v14.848a106.154667 106.154667 0 0 1 44.885334 10.752 90.965333 90.965333 0 0 1 51.2 52.736 147.797333 147.797333 0 0 1-14.506667 110.250667 155.989333 155.989333 0 0 1-125.098667 80.554666 74.922667 74.922667 0 0 1-31.914666-6.656 85.333333 85.333333 0 0 1-42.154667-51.2 152.405333 152.405333 0 0 1 6.144-111.445333c20.650667-40.789333 60.928-84.48 112.128-84.48v-14.848m0 0c-57.685333 0-102.4 47.104-125.269333 92.501333-29.525333 58.197333-17.066667 154.794667 43.008 183.125334a89.6 89.6 0 0 0 38.229333 8.021333 170.666667 170.666667 0 0 0 138.24-88.576c29.525333-58.197333 39.253333-144.554667-43.008-183.125333a119.466667 119.466667 0 0 0-51.2-12.117334z" fill="#231F20" /><path d="M237.568 550.4a36.010667 36.010667 0 0 0 17.066667-49.322667 38.912 38.912 0 0 0-51.2-15.872 36.010667 36.010667 0 0 0-17.066667 49.322667 38.912 38.912 0 0 0 51.2 15.872z" fill="#E2DA71" /><path d="M215.381333 537.258667a21.504 21.504 0 0 0 9.898667-29.525334 23.381333 23.381333 0 0 0-30.72-9.557333 21.504 21.504 0 0 0-9.898667 29.525333 23.381333 23.381333 0 0 0 30.72 9.557334z" fill="#FCF5D4" /><path d="M338.090667 438.272a81.237333 81.237333 0 0 1-30.890667-6.144 93.354667 93.354667 0 0 1-48.469333-54.101333 157.866667 157.866667 0 0 1 1.536-117.248c20.48-45.056 62.464-93.013333 119.466666-93.013334a115.370667 115.370667 0 0 1 44.714667 9.557334 98.474667 98.474667 0 0 1 56.832 55.125333 155.136 155.136 0 0 1-10.069333 116.224c-22.186667 48.64-82.432 89.6-131.754667 89.6z" fill="#C9C540" /><path d="M378.368 175.104a108.032 108.032 0 0 1 41.813333 9.045333 91.306667 91.306667 0 0 1 52.736 51.2 147.797333 147.797333 0 0 1-9.898666 110.592c-20.992 46.250667-78.336 85.333333-125.098667 85.333334a73.898667 73.898667 0 0 1-28.842667-5.461334A86.186667 86.186667 0 0 1 264.874667 375.466667a152.405333 152.405333 0 0 1 1.365333-111.445334c19.456-42.837333 59.221333-88.746667 111.957333-88.746666m0-14.848c-59.733333 0-103.765333 50.005333-125.44 97.450666-26.965333 59.392-11.093333 155.306667 51.2 181.248a88.576 88.576 0 0 0 34.133334 6.656c55.296 0 116.224-45.226667 138.410666-94.037333 26.965333-59.392 33.28-145.92-51.2-181.248a122.197333 122.197333 0 0 0-47.616-10.069333z" fill="#231F20" /><path d="M466.261333 256a75.264 75.264 0 0 0-48.810666-59.392 90.112 90.112 0 0 0-34.133334-7.509333 79.189333 79.189333 0 0 0-39.936 11.264 136.533333 136.533333 0 0 1 104.106667 130.218666 129.536 129.536 0 0 1-1.194667 17.066667 102.4 102.4 0 0 0 8.021334-14.336 138.410667 138.410667 0 0 0 11.946666-77.312z" fill="#B2A93D" /><path d="M318.805014 327.33509a38.058667 36.693333 0.8 1 0 1.024638-73.379513 38.058667 36.693333 0.8 1 0-1.024638 73.379513Z" fill="#E2DA71" /><path d="M305.615742 305.850106a22.869333 22.016 0.79 1 0 0.607098-44.027814 22.869333 22.016 0.79 1 0-0.607098 44.027814Z" fill="#FCF5D4" /><path d="M299.861333 388.096a7.338667 7.338667 0 0 1-4.949333-1.877333 51.2 51.2 0 0 1-14.677333-44.885334 7.338667 7.338667 0 0 1 14.506666 2.56 35.84 35.84 0 0 0 10.069334 31.573334 7.338667 7.338667 0 0 1-4.949334 12.970666z" fill="#FFFFFF" /><path d="M385.706667 617.301333a85.333333 85.333333 0 0 1-44.373334-11.264A91.648 91.648 0 0 1 301.738667 546.133333a160.426667 160.426667 0 0 1 18.773333-116.565333c11.605333-18.090667 54.613333-76.970667 117.930667-76.970667a109.397333 109.397333 0 0 1 56.149333 17.066667 96.938667 96.938667 0 0 1 47.957333 61.781333A155.477333 155.477333 0 0 1 515.584 546.133333a167.936 167.936 0 0 1-129.877333 71.168z" fill="#C9C540" /><path d="M450.730667 442.538667c57.002667 53.589333 35.498667 120.490667-2.218667 167.424a174.250667 174.250667 0 0 0 73.216-60.416c35.669333-54.613333 54.613333-139.946667-23.381333-186.368s-146.773333 6.485333-182.613334 60.757333a115.541333 115.541333 0 0 1 134.997334 18.602667z" fill="#B2A93D" /><path d="M438.442667 360.618667a102.4 102.4 0 0 1 52.394666 15.36 89.770667 89.770667 0 0 1 44.544 57.002666 148.138667 148.138667 0 0 1-25.941333 108.544 162.304 162.304 0 0 1-123.733333 68.266667 77.994667 77.994667 0 0 1-40.448-10.24 85.333333 85.333333 0 0 1-36.352-54.784 153.6 153.6 0 0 1 17.066666-110.762667c22.869333-35.498667 64.341333-73.557333 111.786667-73.557333m0-14.848c-52.906667 0-98.133333 39.936-124.074667 80.384-35.498667 55.125333-34.133333 152.234667 23.552 186.368a92.842667 92.842667 0 0 0 47.957334 12.288 176.298667 176.298667 0 0 0 136.533333-75.264C557.397333 494.933333 576.341333 409.6 498.346667 363.178667a116.053333 116.053333 0 0 0-59.904-17.066667z" fill="#231F20" /><path d="M382.464 499.029333a36.010667 36.010667 0 0 0 17.066667-49.322666 38.912 38.912 0 0 0-51.2-15.872 36.010667 36.010667 0 0 0-17.066667 49.322666 38.912 38.912 0 0 0 51.2 15.872z" fill="#E2DA71" /><path d="M360.277333 486.058667a21.504 21.504 0 0 0 9.898667-29.525334 23.381333 23.381333 0 0 0-30.72-9.557333 21.504 21.504 0 0 0-9.898667 29.525333 23.381333 23.381333 0 0 0 30.72 9.557334z" fill="#FCF5D4" /><path d="M557.226667 443.733333c-59.733333 0-115.2-66.730667-123.050667-124.245333-2.901333-21.162667-6.485333-74.752 23.552-114.005333A102.4 102.4 0 0 1 529.066667 166.741333a133.461333 133.461333 0 0 1 17.066666-1.024c72.874667 0 108.032 67.072 116.053334 124.586667a159.573333 159.573333 0 0 1-31.744 112.469333 96.938667 96.938667 0 0 1-62.805334 39.936 76.8 76.8 0 0 1-9.728 0z" fill="#C9C540" /><path d="M546.133333 173.056c87.893333 0 105.984 98.474667 108.714667 118.272a153.6 153.6 0 0 1-30.378667 107.008 89.770667 89.770667 0 0 1-57.856 37.034667 69.461333 69.461333 0 0 1-8.704 0c-55.125333 0-108.373333-64.512-115.712-117.76a148.821333 148.821333 0 0 1 22.186667-108.373334A94.549333 94.549333 0 0 1 529.066667 174.08a126.464 126.464 0 0 1 15.872-1.024m0-14.848a140.629333 140.629333 0 0 0-17.066667 1.194667C437.077333 170.666667 417.962667 256 426.666667 320c8.362667 60.757333 68.266667 130.56 130.389333 130.56a83.968 83.968 0 0 0 10.581333 0c66.901333-8.533333 109.909333-96.426667 101.034667-160.597333-8.192-60.586667-44.714667-131.754667-122.538667-131.754667z" fill="#231F20" /><path d="M652.629333 329.386667a128 128 0 0 0 1.024-38.058667c-7.509333-54.613333-40.277333-118.272-108.202666-118.272a124.416 124.416 0 0 0-15.701334 1.024 99.157333 99.157333 0 0 0-49.664 19.797333 160.426667 160.426667 0 0 1 19.114667-1.194666 151.552 151.552 0 0 1 153.429333 136.704z" fill="#B2A93D" /><path d="M512 293.888a36.010667 36.010667 0 0 0 17.066667-49.322667 38.912 38.912 0 0 0-51.2-15.872 36.010667 36.010667 0 0 0-17.066667 49.322667 38.912 38.912 0 0 0 51.2 15.872z" fill="#E2DA71" /><path d="M489.984 280.917333a21.504 21.504 0 0 0 9.898667-29.525333 23.381333 23.381333 0 0 0-30.72-9.557333 21.504 21.504 0 0 0-9.898667 29.525333 23.381333 23.381333 0 0 0 30.72 9.557333z" fill="#FCF5D4" /><path d="M619.178667 311.125333a7.338667 7.338667 0 0 1-7.338667-7.338666c0-51.2-19.114667-73.728-19.285333-74.069334a7.338667 7.338667 0 1 1 11.264-9.557333c0.853333 1.024 22.357333 26.624 22.869333 83.456a7.338667 7.338667 0 0 1-7.338667 7.509333z" fill="#231F20" /><path d="M768 553.813333a165.888 165.888 0 0 1-131.584-81.92 155.136 155.136 0 0 1-17.066667-115.712 97.792 97.792 0 0 1 53.077334-58.026666 112.469333 112.469333 0 0 1 49.664-12.288c53.589333 0 96.426667 44.544 119.466666 86.186666a160.256 160.256 0 0 1 8.874667 117.248A92.672 92.672 0 0 1 804.864 546.133333a82.773333 82.773333 0 0 1-36.864 7.68z" fill="#C9C540" /><path d="M722.090667 278.357333v14.848c50.346667 0 90.965333 42.496 112.128 82.261334a152.405333 152.405333 0 0 1 8.362666 111.445333A85.333333 85.333333 0 0 1 802.133333 539.136a75.434667 75.434667 0 0 1-34.133333 6.997333 157.696 157.696 0 0 1-125.098667-77.994666 147.797333 147.797333 0 0 1-17.066666-109.909334 90.624 90.624 0 0 1 49.322666-53.76 105.301333 105.301333 0 0 1 46.421334-11.605333v-14.848m0 0a119.466667 119.466667 0 0 0-53.077334 13.141333c-81.408 40.106667-69.802667 126.293333-39.082666 183.808a172.373333 172.373333 0 0 0 138.069333 85.333334 90.282667 90.282667 0 0 0 40.106667-8.874667c60.074667-29.525333 69.802667-126.293333 39.082666-183.808-23.722667-44.544-68.266667-90.112-125.098666-90.112z" fill="#231F20" /><path d="M716.8 377.173333c59.562667-14.677333 96.768 25.429333 114.005333 68.266667A125.781333 125.781333 0 0 0 819.2 375.466667c-23.552-44.373333-74.410667-90.112-136.533333-59.221334s-53.930667 95.402667-31.061334 139.776A83.626667 83.626667 0 0 1 716.8 377.173333z" fill="#B2A93D" /><path d="M795.818667 435.2a38.912 38.912 0 0 0-51.2-15.872 36.010667 36.010667 0 0 0-17.066667 49.322667 38.912 38.912 0 0 0 51.2 15.872 36.010667 36.010667 0 0 0 17.066667-49.322667z" fill="#E2DA71" /><path d="M782.165333 456.533333a23.381333 23.381333 0 0 0-30.72-9.557333 21.504 21.504 0 0 0-9.898666 29.525333 23.381333 23.381333 0 0 0 30.72 9.557334 21.504 21.504 0 0 0 9.898666-29.525334z" fill="#FCF5D4" /><path d="M819.2 446.464a7.338667 7.338667 0 0 1-7.338667-6.485333 124.586667 124.586667 0 0 0-28.16-71.338667 7.338667 7.338667 0 0 1 10.069334-10.922667c1.024 1.024 25.429333 23.893333 32.938666 80.384a7.338667 7.338667 0 0 1-6.314666 8.362667zM822.272 484.352a7.338667 7.338667 0 0 1-6.826667-8.021333 55.978667 55.978667 0 0 0 0-15.530667 7.338667 7.338667 0 0 1 14.336-3.413333 69.461333 69.461333 0 0 1-0.170666 20.48 7.338667 7.338667 0 0 1-7.338667 6.485333zM646.997333 370.688h-2.56a7.338667 7.338667 0 0 1-4.437333-9.557333 68.266667 68.266667 0 0 1 47.104-42.666667 7.338667 7.338667 0 0 1 2.389333 14.506667 53.930667 53.930667 0 0 0-35.669333 33.109333 7.338667 7.338667 0 0 1-6.826667 4.608z" fill="#231F20" /><path d="M669.866667 766.122667c-61.781333 0-114.688-76.458667-114.688-139.093334s30.037333-139.093333 114.688-139.093333a100.864 100.864 0 0 1 89.258666 45.738667A172.202667 172.202667 0 0 1 785.066667 627.029333c0 62.634667-53.418667 139.093333-115.2 139.093334z" fill="#C9C540" /><path d="M672.768 572.074667c77.824 17.066667 96.256 85.333333 89.941333 143.530666a164.522667 164.522667 0 0 0 29.184-88.405333c0-64.682667-30.549333-146.602667-122.026666-146.602667s-121.173333 79.701333-122.026667 144.042667a113.834667 113.834667 0 0 1 124.928-52.565333z" fill="#B2A93D" /><path d="M669.866667 494.933333c79.189333 0 107.349333 70.997333 107.349333 131.754667 0 58.026667-51.2 131.754667-107.349333 131.754667S563.2 685.056 563.2 627.029333c0-60.757333 27.477333-132.096 106.666667-132.096m0-14.848c-91.477333 0-122.026667 81.749333-122.026667 146.602667s54.613333 146.602667 122.026667 146.602667 122.026667-81.749333 122.026666-146.602667-30.549333-146.602667-122.026666-146.602667z" fill="#231F20" /><path d="M672.426667 718.848a36.010667 36.010667 0 0 0 17.066666-49.322667 38.912 38.912 0 0 0-51.2-15.872 36.010667 36.010667 0 0 0-17.066666 49.322667 38.912 38.912 0 0 0 51.2 15.872z" fill="#E2DA71" /><path d="M650.24 705.877333a21.504 21.504 0 0 0 9.898667-29.525333 23.381333 23.381333 0 0 0-30.72-9.557333 21.504 21.504 0 0 0-9.898667 29.525333 23.381333 23.381333 0 0 0 30.72 9.557333z" fill="#FCF5D4" /><path d="M730.282667 700.757333a7.338667 7.338667 0 0 1-3.754667-1.024 7.338667 7.338667 0 0 1-2.56-10.069333c26.624-44.885333 22.357333-72.874667 22.186667-73.216a7.338667 7.338667 0 0 1 14.506666-2.56c0 1.365333 5.290667 34.133333-24.064 83.285333a7.338667 7.338667 0 0 1-6.314666 3.584zM708.608 732.501333a7.338667 7.338667 0 0 1-5.461333-12.458666 58.88 58.88 0 0 0 9.216-12.8 7.338667 7.338667 0 0 1 13.482666 6.144 71.68 71.68 0 0 1-11.776 17.066666 7.338667 7.338667 0 0 1-5.461333 2.048z" fill="#231F20" /><path d="M536.405333 643.413333a81.237333 81.237333 0 0 1-31.573333-6.144 93.354667 93.354667 0 0 1-48.469333-54.101333 157.866667 157.866667 0 0 1 1.536-117.248c20.48-45.056 62.464-93.013333 119.466666-93.013333a115.370667 115.370667 0 0 1 44.714667 9.557333 98.474667 98.474667 0 0 1 56.832 55.125333 155.136 155.136 0 0 1-10.069333 116.224c-22.869333 48.469333-83.114667 89.6-132.437334 89.6z" fill="#C9C540" /><path d="M588.8 460.8c64.341333 45.397333 52.906667 114.517333 22.528 166.058667a171.52 171.52 0 0 0 63.658667-69.802667c26.965333-59.392 33.28-145.92-51.2-181.248s-144.384 26.282667-171.861334 85.333333A115.882667 115.882667 0 0 1 588.8 460.8z" fill="#B2A93D" /><path d="M576.682667 380.245333a108.032 108.032 0 0 1 41.813333 9.045334 91.306667 91.306667 0 0 1 52.736 51.2 147.797333 147.797333 0 0 1-9.898667 110.592c-20.992 46.250667-78.336 85.333333-125.098666 85.333333a73.898667 73.898667 0 0 1-28.842667-5.461333A86.186667 86.186667 0 0 1 463.189333 580.266667a152.405333 152.405333 0 0 1 1.365334-111.445334c19.456-42.837333 59.221333-88.746667 111.957333-88.746666m0-14.848c-59.733333 0-103.765333 50.005333-125.44 97.450666-26.965333 59.392-11.093333 155.306667 51.2 181.248a88.576 88.576 0 0 0 34.133333 6.656c55.296 0 116.224-45.226667 138.581334-93.866666 26.965333-59.392 33.28-145.92-51.2-181.248a122.197333 122.197333 0 0 0-47.616-10.069334z" fill="#231F20" /><path d="M527.530667 529.066667a36.010667 36.010667 0 0 0 17.066666-49.322667 38.912 38.912 0 0 0-51.2-15.872 36.010667 36.010667 0 0 0-17.066666 49.322667 38.912 38.912 0 0 0 51.2 15.872z" fill="#E2DA71" /><path d="M505.173333 515.413333a21.504 21.504 0 0 0 9.898667-29.525333 23.381333 23.381333 0 0 0-30.72-9.557333 21.504 21.504 0 0 0-9.898667 29.525333 23.381333 23.381333 0 0 0 30.72 9.557333z" fill="#FCF5D4" /><path d="M587.605333 590.677333a7.338667 7.338667 0 0 1-4.266666-13.482666c43.008-30.037333 51.2-57.856 51.2-58.197334a7.338667 7.338667 0 0 1 14.165333 3.925334c0 1.365333-9.557333 32.768-57.344 66.389333a7.338667 7.338667 0 0 1-3.754667 1.365333z" fill="#231F20" /><path d="M553.984 971.093333c-60.245333 0-115.2-70.826667-120.490667-129.536-1.877333-21.333333-2.901333-74.922667 29.013334-112.810666a102.4 102.4 0 0 1 72.704-35.328h11.264c76.629333 0 110.08 69.802667 115.370666 129.706666a159.914667 159.914667 0 0 1-37.034666 110.933334 97.450667 97.450667 0 0 1-64.682667 37.205333z" fill="#C9C540" /><path d="M546.133333 777.045333c79.018667 10.410667 103.424 76.288 102.4 135.509334a163.84 163.84 0 0 0 21.162667-90.453334c-5.802667-64.512-43.52-143.530667-134.656-136.533333s-113.664 89.429333-108.714667 153.6A112.981333 112.981333 0 0 1 546.133333 777.045333z" fill="#B2A93D" /><path d="M546.133333 685.738667V699.733333c71.509333 0 102.4 66.218667 108.032 123.050667a153.6 153.6 0 0 1-35.328 105.472 90.282667 90.282667 0 0 1-59.562666 34.133333h-5.632c-56.490667 0-108.032-67.072-113.152-122.709333a149.333333 149.333333 0 0 1 27.648-105.813333 94.890667 94.890667 0 0 1 68.266666-32.597334L546.133333 699.733333v-14.848m0 0h-11.946666c-91.306667 7.509333-114.346667 91.648-108.544 155.989334s63.317333 136.533333 127.829333 136.533333h6.826667c67.242667-5.632 114.346667-91.477333 108.544-155.989333-5.461333-61.610667-40.106667-136.533333-122.709334-136.533334z" fill="#231F20" /><path d="M542.72 916.650667a36.010667 36.010667 0 0 0 17.066667-49.322667 38.912 38.912 0 0 0-51.2-15.872 36.010667 36.010667 0 0 0-17.066667 49.322667 38.912 38.912 0 0 0 51.2 15.872z" fill="#E2DA71" /><path d="M520.533333 903.68a21.504 21.504 0 0 0 9.898667-29.525333 23.381333 23.381333 0 0 0-30.72-9.557334 21.504 21.504 0 0 0-9.898667 29.525334 23.381333 23.381333 0 0 0 30.72 9.557333z" fill="#FCF5D4" /><path d="M620.885333 876.373333h-1.536a7.338667 7.338667 0 0 1-5.632-8.874666c11.093333-51.2-2.218667-75.946667-2.218666-76.117334a7.338667 7.338667 0 1 1 12.970666-6.997333c0 1.194667 15.872 30.549333 3.754667 86.357333a7.338667 7.338667 0 0 1-7.338667 5.632zM610.474667 913.066667a7.338667 7.338667 0 0 1-6.656-10.410667 57.173333 57.173333 0 0 0 4.608-14.848 7.338667 7.338667 0 0 1 14.677333 1.706667 69.973333 69.973333 0 0 1-5.802667 19.285333 7.338667 7.338667 0 0 1-6.826666 4.266667z" fill="#231F20" /><path d="M430.250667 813.568a87.04 87.04 0 0 1-49.152-13.653333 90.965333 90.965333 0 0 1-36.352-61.098667 160.768 160.768 0 0 1 24.917333-115.712c12.117333-17.066667 56.149333-71.168 117.077333-71.168A107.52 107.52 0 0 1 546.133333 571.392a96.256 96.256 0 0 1 44.544 63.829333 155.818667 155.818667 0 0 1-32.938666 112.981334 172.202667 172.202667 0 0 1-127.488 65.365333z" fill="#C9C540" /><path d="M486.570667 559.445333a100.352 100.352 0 0 1 55.978666 18.090667 89.258667 89.258667 0 0 1 41.301334 58.88 148.48 148.48 0 0 1-31.744 107.349333 164.181333 164.181333 0 0 1-122.026667 62.293334 79.872 79.872 0 0 1-45.056-12.288 83.797333 83.797333 0 0 1-33.28-56.149334A153.6 153.6 0 0 1 375.466667 627.541333c11.605333-16.042667 53.589333-68.266667 111.104-68.266666m0-14.848c-51.2 0-95.744 36.352-123.050667 74.24-38.4 53.248-41.984 150.357333 13.312 187.733333a94.890667 94.890667 0 0 0 53.248 14.848 178.517333 178.517333 0 0 0 133.973333-68.266667c38.4-53.248 61.781333-136.533333-13.312-187.733333a114.346667 114.346667 0 0 0-64.170666-20.650667z" fill="#231F20" /><path d="M492.714667 645.973333c43.349333 45.226667 23.210667 97.962667-9.045334 133.973334a140.8 140.8 0 0 0 61.269334-46.08c30.72-42.666667 49.664-110.08-10.752-150.186667s-117.930667 0-148.992 41.472a92.501333 92.501333 0 0 1 107.52 20.821333z" fill="#B2A93D" /><path d="M435.882667 740.864a36.010667 36.010667 0 0 0 17.066666-49.322667 38.912 38.912 0 0 0-51.2-15.872 36.010667 36.010667 0 0 0-17.066666 49.322667 38.912 38.912 0 0 0 51.2 15.872z" fill="#E2DA71" /><path d="M413.696 727.893333a21.504 21.504 0 0 0 9.898667-29.525333 23.381333 23.381333 0 0 0-30.72-9.557333 21.504 21.504 0 0 0-9.898667 29.525333 23.381333 23.381333 0 0 0 30.72 9.557333z" fill="#FCF5D4" /><path d="M529.066667 727.552a7.338667 7.338667 0 0 1-4.096-1.194667 7.338667 7.338667 0 0 1-2.218667-10.24 123.221333 123.221333 0 0 0 25.258667-72.362666 7.338667 7.338667 0 0 1 14.677333-1.877334c0 1.365333 3.925333 34.133333-27.648 82.261334a7.338667 7.338667 0 0 1-5.973333 3.413333zM505.856 758.442667a7.338667 7.338667 0 0 1-5.290667-12.629334 58.88 58.88 0 0 0 9.728-11.946666 7.338667 7.338667 0 0 1 13.141334 6.826666 71.68 71.68 0 0 1-12.288 16.042667 7.338667 7.338667 0 0 1-5.290667 1.706667zM471.552 202.922667a10.581333 10.581333 0 0 1-10.581333-10.581334 140.8 140.8 0 0 1 109.909333-132.437333 10.581333 10.581333 0 1 1 4.949333 20.650667 117.76 117.76 0 0 0-93.696 111.786666 10.581333 10.581333 0 0 1-10.581333 10.581334z" fill="#231F20" /><path d="M845.312 291.498667a10.581333 10.581333 0 0 1-10.069333-13.994667c9.045333-25.941333 8.362667-68.266667-20.48-86.186667a39.424 39.424 0 0 1-45.909334 17.066667 26.112 26.112 0 0 1-21.674666-31.402667 17.066667 17.066667 0 0 1 9.557333-11.093333 78.677333 78.677333 0 0 1 41.642667-1.365333 18.773333 18.773333 0 0 0-3.754667-10.24c-11.776-15.189333-51.2-14.506667-79.018667-13.994667a189.44 189.44 0 0 1-38.741333-1.536 37.546667 37.546667 0 0 1-10.24-3.584 39.765333 39.765333 0 0 1-8.021333 4.778667c-47.616 19.968-113.834667 10.24-137.728-39.936a10.581333 10.581333 0 0 1 19.114666-9.045334C558.421333 129.706667 610.133333 136.533333 648.533333 121.685333a48.810667 48.810667 0 0 1-14.677333-30.549333c0-6.314667 2.048-21.333333 24.405333-25.770667 25.088-4.437333 31.914667 9.045333 34.133334 15.018667A49.322667 49.322667 0 0 1 682.666667 119.466667a200.874667 200.874667 0 0 0 32.768 0c34.133333 0 77.824-1.365333 96.085333 22.186666A41.130667 41.130667 0 0 1 819.2 170.666667h1.024c40.448 20.48 47.616 73.898667 34.133333 113.664a10.581333 10.581333 0 0 1-9.045333 7.168zM768 184.661333c1.194667 2.218667 5.802667 3.413333 6.485333 3.584a21.845333 21.845333 0 0 0 18.261334-2.901333 82.090667 82.090667 0 0 0-24.746667-0.682667zM667.648 85.333333a31.914667 31.914667 0 0 0-5.461333 0c-7.168 1.536-7.168 3.754667-7.168 4.778667a29.866667 29.866667 0 0 0 9.216 17.066667 51.2 51.2 0 0 0 6.656-13.312 12.458667 12.458667 0 0 0 0-7.68 8.362667 8.362667 0 0 0-3.242667-0.853334z" fill="#231F20" /></svg>